<svg id="Calque_1" data-name="Calque 1" xmlns="http://www.w3.org/2000/svg" width="114.72mm" height="39.25mm" viewBox="0 0 325.2 111.26">
  <defs>
    <style>
      .cls-1 {
        fill: #141412;
      }
    </style>
  </defs>
  <title>Logo_CinémaChexbres</title>
  <g>
    <path class="cls-1" d="M265.16,283.47A22.38,22.38,0,0,1,265.1,252c4.32-4.08,9.78-6.12,16.32-6.12a23.32,23.32,0,0,1,11.09,2.64v8.7a19.39,19.39,0,0,0-11-3.24,13.9,13.9,0,0,0-10,3.9,14.13,14.13,0,0,0,.12,19.74,14.22,14.22,0,0,0,10.25,3.84,18,18,0,0,0,11.52-3.66v8.7a22.8,22.8,0,0,1-11.93,3.06C274.88,289.59,269.48,287.55,265.16,283.47Z" transform="translate(-258.68 -234.33)"/>
    <path class="cls-1" d="M301,288.75v-42h8.57v42Z" transform="translate(-258.68 -234.33)"/>
    <path class="cls-1" d="M319.15,288.75v-42h7.38l21.18,26.88V246.75h8.4v42H349l-21.36-27v27Z" transform="translate(-258.68 -234.33)"/>
    <path class="cls-1" d="M365.41,288.75v-42h30.84v7.74h-22.2v8.1h17.88v7.62H374.05V281h22.86v7.74Zm10-45.66,5.7-8.76h10.2l-8.58,8.76Z" transform="translate(-258.68 -234.33)"/>
    <path class="cls-1" d="M403.81,288.75v-42h8.58l12.18,17.4,12.18-17.4h8.52v42h-8.52V260l-9.66,13.5h-4.8L412.45,260v28.74Z" transform="translate(-258.68 -234.33)"/>
    <path class="cls-1" d="M450.91,288.75l18-42.24h8.28l18,42.24H486L481.87,279H464.11L460,288.75Zm15.9-16.86h12.3L473,257.31Z" transform="translate(-258.68 -234.33)"/>
    <path class="cls-1" d="M265.16,339.47A22.38,22.38,0,0,1,265.1,308c4.32-4.08,9.78-6.12,16.32-6.12a23.32,23.32,0,0,1,11.09,2.64v8.7a19.39,19.39,0,0,0-11-3.24,13.9,13.9,0,0,0-10,3.9,14.13,14.13,0,0,0,.12,19.74,14.22,14.22,0,0,0,10.25,3.84,18,18,0,0,0,11.52-3.66v8.7a22.8,22.8,0,0,1-11.93,3.06C274.88,345.59,269.48,343.55,265.16,339.47Z" transform="translate(-258.68 -234.33)"/>
    <path class="cls-1" d="M300.73,344.75v-42h8.64v15.72h19V302.75h8.58v42h-8.58V326.33h-19v18.42Z" transform="translate(-258.68 -234.33)"/>
    <path class="cls-1" d="M346.21,344.75v-42h30.84v7.74h-22.2v8.1h17.88v7.62H354.85V337h22.86v7.74Z" transform="translate(-258.68 -234.33)"/>
    <path class="cls-1" d="M393,302.75l8.82,12.54,8.94-12.54h10l-13.86,19.32,16.32,22.68H413.05l-11.4-15.66-11.34,15.66h-10l16.38-22.62-13.85-19.38Z" transform="translate(-258.68 -234.33)"/>
    <path class="cls-1" d="M428.11,344.75v-42h19.74c7.68,0,12.72,3.78,12.72,10.5a8.7,8.7,0,0,1-5.28,8.34,10.54,10.54,0,0,1,6,3.72,11.12,11.12,0,0,1,2.52,7.5,10.76,10.76,0,0,1-4,8.64c-2.64,2.22-6.18,3.3-10.62,3.3Zm8.64-25.56h9.72c3.6,0,5.76-1.68,5.76-4.56s-2.16-4.68-5.76-4.68h-9.72Zm0,18.12h10.86c4.26,0,6.84-1.92,6.84-5.46s-2.58-5.52-6.84-5.52H436.75Z" transform="translate(-258.68 -234.33)"/>
    <path class="cls-1" d="M471.07,344.75v-42h19.44c4.44,0,8,1.14,10.56,3.48a11.42,11.42,0,0,1,3.9,8.94,11.75,11.75,0,0,1-8.7,11.64l13,17.94h-10l-12.24-17h-7.26v17Zm8.64-24.24H490c3.9,0,6.24-1.8,6.24-5.1s-2.34-5.1-6.24-5.1H479.71Z" transform="translate(-258.68 -234.33)"/>
    <path class="cls-1" d="M514.87,344.75v-42h30.84v7.74h-22.2v8.1h17.88v7.62H523.51V337h22.86v7.74Z" transform="translate(-258.68 -234.33)"/>
    <path class="cls-1" d="M551.23,341.09v-9a23.6,23.6,0,0,0,7,4,25,25,0,0,0,8.64,1.62c4.56,0,8.1-1.68,8.1-4.86a3.67,3.67,0,0,0-2.16-3.48,10.11,10.11,0,0,0-2.4-1.08l-1.44-.48-3.36-1-3.12-1c-.6-.18-1.56-.54-2.82-1a14.68,14.68,0,0,1-2.7-1.26c-1.14-.78-3.18-2.22-4-3.66a13.23,13.23,0,0,1-1.44-5.88,10.35,10.35,0,0,1,4.26-8.76c2.82-2.16,6.72-3.24,11.58-3.24a28.17,28.17,0,0,1,13.74,3.48v8.4a25.47,25.47,0,0,0-13.62-4c-4.74,0-7.14,1.38-7.14,4.14,0,1.38.84,2.22,2.22,2.88a18.65,18.65,0,0,0,3.42,1.26c1.14.3,3.3.9,4.56,1.32a29.32,29.32,0,0,1,9.12,4.38c2.82,2,4.2,4.92,4.2,8.76a11.19,11.19,0,0,1-4.74,9.54c-3.18,2.34-7.14,3.48-11.94,3.48C560.89,345.59,555.55,344.09,551.23,341.09Z" transform="translate(-258.68 -234.33)"/>
  </g>
</svg>
